<svg xmlns="http://www.w3.org/2000/svg" xmlns:xlink="http://www.w3.org/1999/xlink" viewBox="0 0 128 128"><defs><style>.cls-1{isolation:isolate;}.cls-2{fill:#f47451;}.cls-3{fill:#f1d274;}.Graphic-Style{opacity:0.24;mix-blend-mode:multiply;}.Graphic-Style-2,.cls-4{opacity:0.32;}.Graphic-Style-2{mix-blend-mode:overlay;fill:url(#linear-gradient);}.cls-5{fill:none;stroke:#483f33;stroke-linecap:round;stroke-linejoin:round;stroke-width:2px;}</style><linearGradient id="linear-gradient" x1="17" y1="64" x2="111" y2="64" gradientUnits="userSpaceOnUse"><stop offset="0" stop-color="#fff"/><stop offset="1"/></linearGradient></defs><title>cards</title><g class="cls-1"><g id="icons"><g id="_Group_" data-name="&lt;Group&gt;"><polygon class="cls-2" points="26 95 29 100 26 105 23 100 26 95"/><path class="cls-2" d="M93.34,26.45c.69,3.5-2.83,6.38-2.83,6.38s-4.35-1.31-5-4.82a2.26,2.26,0,0,1,1.67-2.7,2.13,2.13,0,0,1,2,.71,2.15,2.15,0,0,1,1.59-1.43A2.26,2.26,0,0,1,93.34,26.45Z"/><polygon class="cls-2" points="62 39 65 44 62 49 59 44 62 39"/><path class="cls-2" d="M89.3,52.46C91.39,63,79.85,71.82,79.85,71.82A32.16,32.16,0,0,1,71,67.62V49.23a6.94,6.94,0,0,1,4.79,2.15A7.08,7.08,0,0,1,89.3,52.46Z"/><polygon class="cls-2" points="44 55.5 54 72 44 88.5 34 72 44 55.5"/><path class="cls-3" d="M110.92,89.2a4,4,0,0,1-3.14,4.71L71,101.23V67.62a32.16,32.16,0,0,0,8.85,4.2S91.39,63,89.3,52.46a7.08,7.08,0,0,0-13.51-1.08A6.94,6.94,0,0,0,71,49.23V37a4,4,0,0,0-4-4H44.52l-.44-2.2a4,4,0,0,1,3.14-4.71l45.29-9a4,4,0,0,1,4.7,3.14ZM90.51,32.83S94,30,93.34,26.45a2.26,2.26,0,0,0-2.59-1.86A2.15,2.15,0,0,0,89.16,26a2.13,2.13,0,0,0-2-.71A2.26,2.26,0,0,0,85.47,28C86.16,31.52,90.51,32.83,90.51,32.83Z"/><path class="Graphic-Style" d="M110.92,89.2l-13.71-69a4,4,0,0,0-4.7-3.14l-1.53.3a4,4,0,0,1,2.23,2.84l13.71,69a4,4,0,0,1-3.14,4.71L71,100.43v.8l36.78-7.32A4,4,0,0,0,110.92,89.2Z"/><path class="cls-3" d="M71,101.23V107a4,4,0,0,1-4,4H21a4,4,0,0,1-4-4V37a4,4,0,0,1,4-4H67a4,4,0,0,1,4,4v64.23ZM65,44l-3-5-3,5,3,5ZM54,72,44,55.5,34,72,44,88.5ZM29,100l-3-5-3,5,3,5Z"/><path class="Graphic-Style-2" d="M110.92,89.2l-13.71-69a4,4,0,0,0-4.7-3.14l-45.29,9a4,4,0,0,0-3.14,4.71l.44,2.2H21a4,4,0,0,0-4,4v70a4,4,0,0,0,4,4H67a4,4,0,0,0,4-4v-5.77l36.78-7.32A4,4,0,0,0,110.92,89.2Z"/><g class="cls-4"><line class="cls-5" x1="23" y1="41" x2="23" y2="49"/><line class="cls-5" x1="100.91" y1="85.58" x2="100.13" y2="81.65"/><line class="cls-5" x1="23" y1="55" x2="23" y2="59"/><line class="cls-5" x1="65" y1="91" x2="65" y2="103"/></g><path class="cls-5" d="M71,101.23V107a4,4,0,0,1-4,4H21a4,4,0,0,1-4-4V37a4,4,0,0,1,4-4H67a4,4,0,0,1,4,4v64.23Z"/><polygon class="cls-5" points="44 88.5 34 72 44 55.5 54 72 44 88.5"/><polygon class="cls-5" points="62 49 59 44 62 39 65 44 62 49"/><polygon class="cls-5" points="26 105 23 100 26 95 29 100 26 105"/><path class="cls-5" d="M44.52,33l-.44-2.2a4,4,0,0,1,3.14-4.71l45.29-9a4,4,0,0,1,4.7,3.14l13.71,69a4,4,0,0,1-3.14,4.71L71,101.23"/><path class="cls-5" d="M71,67.62a32.16,32.16,0,0,0,8.85,4.2S91.39,63,89.3,52.46a7.08,7.08,0,0,0-13.51-1.08A6.94,6.94,0,0,0,71,49.23"/><path class="cls-5" d="M90.75,24.59A2.15,2.15,0,0,0,89.16,26a2.13,2.13,0,0,0-2-.71A2.26,2.26,0,0,0,85.47,28c.69,3.51,5,4.82,5,4.82S94,30,93.34,26.45A2.26,2.26,0,0,0,90.75,24.59Z"/></g></g></g></svg>